<svg width="50" height="50" viewBox="0 0 50 50" fill="none" xmlns="http://www.w3.org/2000/svg">
<path d="M49.4805 38.4531C47.6992 38.9063 46.5977 38.4727 45.6094 36.9883C43.3906 33.6641 40.9414 30.4922 38.5781 27.2617C38.2734 26.8438 37.957 26.4336 37.5625 25.9141C34.7656 29.6875 31.9727 33.2812 29.3516 37.0195C28.4141 38.3555 27.4297 38.9375 25.6797 38.4648L36.1953 24.3516L26.4062 11.6055C28.0898 11.2773 29.2539 11.4453 30.2852 12.9531C32.5625 16.2813 35.0742 19.4492 37.5781 22.8008C40.0977 19.4609 42.5781 16.2891 44.9219 12.9922C45.8633 11.6563 46.875 11.1484 48.5664 11.6406C47.2852 13.3398 46.0313 15.0117 44.7695 16.6719C43.0664 18.9102 41.3945 21.1758 39.6289 23.3672C39 24.1484 39.1016 24.6563 39.6641 25.3945C42.9297 29.6875 46.1562 34.0234 49.4805 38.4531ZM0.519531 24.1172C0.800781 22.707 0.988281 21.2695 1.37891 19.8867C3.72266 11.5156 13.332 8.03516 19.9336 13.2227C23.8008 16.2656 24.7617 20.5547 24.5703 25.3906H2.77344C2.44531 34.0664 8.69141 39.3047 16.6523 36.6328C19.4453 35.6953 21.0898 33.5078 21.9141 30.7734C22.332 29.4023 23.0234 29.1875 24.3125 29.5781C23.6523 33 22.1563 35.8594 19.0313 37.6484C14.3438 40.3281 7.65234 39.4609 4.13281 35.7383C2.05469 33.5508 1.17188 30.8281 0.78125 27.8867C0.722656 27.418 0.601563 26.957 0.507812 26.4922C0.515625 25.7005 0.519531 24.9089 0.519531 24.1172ZM2.8125 23.5352H22.5117C22.3828 17.2617 18.4766 12.8047 13.1367 12.7656C7.27735 12.7188 3.06641 17.0703 2.8125 23.5352Z" fill="white"/>
</svg>
