<svg width="50" height="50" viewBox="0 0 50 50" fill="none" xmlns="http://www.w3.org/2000/svg">
<g clip-path="url(#clip0_6_557)">
<path d="M29.4531 0.117188C29.1016 0.117188 28.75 0.195312 28.4375 0.3125C29.1016 0.742188 29.4531 1.32812 29.6484 1.99219C29.6484 2.07031 29.6875 2.14844 29.6875 2.22656C29.6875 2.30469 29.7266 2.38281 29.7266 2.46094C29.7656 3.59375 29.4141 3.75 29.1797 4.41406C28.7891 5.27344 28.9062 6.21094 29.375 6.95312C29.4141 7.03125 29.4531 7.14844 29.5312 7.22656C29.0234 3.94531 31.7578 3.47656 32.2656 2.46094C32.3047 1.5625 31.5625 0.976562 30.9766 0.546875C30.3906 0.195312 29.9219 0.117188 29.4531 0.117188ZM33.5547 0.820312C33.5156 1.13281 33.5547 1.05469 33.5156 1.21094C33.5156 1.32812 33.5156 1.44531 33.4766 1.5625C33.4375 1.67969 33.4375 1.75781 33.3984 1.875C33.3594 1.99219 33.3203 2.07031 33.2812 2.1875C33.2422 2.26562 33.2031 2.34375 33.1641 2.46094C33.125 2.5 33.0859 2.57812 33.0469 2.61719C33.0078 2.65625 33.0078 2.69531 32.9687 2.73438C32.8906 2.8125 32.8516 2.92969 32.7734 3.00781L32.5391 3.24219C32.4609 3.32031 32.3828 3.39844 32.3047 3.4375C32.0312 3.63281 31.7187 3.78906 31.4453 3.98437C31.3672 4.0625 31.25 4.10156 31.1719 4.17969C31.0937 4.25781 31.0156 4.29688 30.9375 4.375L30.7031 4.60938C30.625 4.6875 30.5469 4.76562 30.5078 4.88281C30.4297 4.96094 30.3906 5.07812 30.3125 5.15625C30.2734 5.27344 30.2344 5.35156 30.1562 5.46875C30.1172 5.58594 30.0781 5.66406 30.0391 5.78125C30 5.89844 29.9609 6.01562 29.9609 6.09375C29.9609 6.13281 29.9609 6.21094 29.9219 6.25C29.9219 6.28906 29.9219 6.36719 29.8828 6.40625V6.95312C29.8828 7.07031 29.8828 7.14844 29.9219 7.26563C29.9219 7.38281 29.9609 7.46094 30 7.57812C30.0391 7.69531 30.0781 7.77344 30.1172 7.89063C30.1562 7.96875 30.1953 8.00781 30.1953 8.08594L27.2266 6.95312C26.7187 6.79688 26.25 6.67969 25.7422 6.5625C25.4687 6.48438 25.1953 6.44531 24.9219 6.36719C24.1406 6.21094 23.3594 6.09375 22.5781 6.01562H22.5C21.7187 5.9375 20.9766 5.89844 20.1953 5.89844C19.6094 5.89844 19.0625 5.9375 18.5156 5.97656C17.7344 6.01562 16.9531 6.13281 16.1719 6.25L15.5859 6.36719C15.1953 6.44531 14.8047 6.52344 14.4141 6.64063C14.2187 6.67969 14.0234 6.75781 13.8281 6.79688C13.6328 6.875 13.4375 6.95313 13.2812 7.03125C13.125 7.10938 13.0078 7.14844 12.8516 7.22656C12.8125 7.22656 12.8125 7.22656 12.7734 7.26563C12.6562 7.34375 12.5391 7.38281 12.4219 7.46094C12.3828 7.46094 12.3437 7.5 12.3437 7.5C12.1875 7.57813 12.0703 7.65625 11.9531 7.69531C11.875 7.73438 11.7578 7.77344 11.6797 7.8125C11.6406 7.85156 11.6016 7.85156 11.5625 7.89063C11.4453 7.96875 11.3281 8.00781 11.2109 8.08594C11.0938 8.16406 10.9766 8.20313 10.8984 8.28125C10.8203 8.35938 10.7031 8.39844 10.625 8.47656C10.625 8.47656 10.5859 8.47656 10.5859 8.51562C10.5078 8.55469 10.4297 8.63281 10.3516 8.71094L10.3125 8.75C10.2344 8.78906 10.1953 8.86719 10.1172 8.90625C10.0781 8.90625 10.0781 8.94531 10.0391 8.94531C9.96094 8.98438 9.92188 9.0625 9.84375 9.10156C9.84375 9.14062 9.80469 9.14062 9.80469 9.14062L9.57031 9.375L9.53125 9.41406L9.29687 9.64844C9.29687 9.64844 9.29688 9.6875 9.25781 9.6875L9.0625 9.88281C9.02344 9.92188 8.98437 9.92188 8.98437 9.96094L8.75 10.1953C8.75 10.2344 8.71094 10.2344 8.71094 10.2734L8.39844 10.5859L8.35937 10.625C8.16406 10.8594 7.92969 11.0547 7.69531 11.25C7.46094 11.4453 7.22656 11.6406 6.95312 11.8359C6.67969 12.0312 6.44531 12.1875 6.17187 12.3438C5.89844 12.5 5.625 12.6172 5.35156 12.7344C5.07812 12.8516 4.80469 12.9688 4.53125 13.0469C3.98438 13.1641 3.4375 13.3984 2.96875 13.4375C2.96875 13.2422 2.85156 13.2812 2.73437 13.2812C2.61719 13.3203 2.5 13.3203 2.42187 13.3594C2.30469 13.3984 2.22656 13.4375 2.10937 13.4766C1.99219 13.5156 1.91406 13.5547 1.79687 13.6328C1.71875 13.7109 1.60156 13.75 1.52344 13.8281C1.44531 13.9063 1.32812 13.9844 1.25 14.0625C1.17187 14.1406 1.05469 14.2188 0.976562 14.2969C0.898437 14.375 0.820312 14.4531 0.742187 14.5703C0.664062 14.6875 0.585937 14.7656 0.546875 14.8828C0.46875 14.9609 0.429687 15.0781 0.351562 15.1953C0.3125 15.3125 0.234375 15.4297 0.195312 15.5469L0.078125 15.8984C0.0390625 16.0156 0.0390625 16.0938 -3.72529e-09 16.2109V16.25C-0.0390625 16.3672 -0.0390625 16.5234 -0.0390625 16.6016C-3.72529e-09 16.5625 -3.72529e-09 16.6406 -3.72529e-09 16.7188V16.875C-3.72529e-09 16.9531 0.0390625 17.0312 0.0390625 17.1094C0.078125 17.1875 0.078125 17.2656 0.117187 17.3438C0.15625 17.4219 0.195312 17.5 0.273437 17.5781C0.3125 17.6562 0.390625 17.7344 0.429687 17.8125C0.507812 17.8906 0.585938 17.9688 0.664062 18.0078C0.742187 18.0859 0.820312 18.1641 0.898437 18.2031C1.21094 18.4766 1.28906 18.5547 1.67969 18.7891C1.75781 18.8281 1.79687 18.8672 1.875 18.9062H1.91406V18.9844C1.91406 19.1016 1.95312 19.1797 1.99219 19.2969C2.03125 19.4141 2.07031 19.5312 2.10937 19.6094L2.22656 19.8438C2.22656 19.8828 2.26562 19.8828 2.26562 19.9219C2.30469 20.0391 2.38281 20.1172 2.42187 20.1953C2.5 20.2734 2.53906 20.3906 2.61719 20.4688L2.85156 20.7031L3.08594 20.9375H3.125C3.20312 21.0156 3.28125 21.0547 3.35938 21.1328C3.4375 21.2109 3.55469 21.25 3.63281 21.2891C3.71094 21.3281 3.82812 21.4062 3.94531 21.4453C4.02344 21.4844 4.10156 21.5234 4.21875 21.5234C4.21875 21.5234 4.25781 21.5234 4.25781 21.5625C4.29687 21.5625 4.375 21.6016 4.41406 21.6016C4.375 22.3047 4.375 22.9688 4.45312 23.2031C4.57031 23.4766 5.15625 22.6562 5.70312 21.7578C5.625 22.6562 5.58594 23.7109 5.70312 24.0234C5.85938 24.3359 6.60156 23.3203 7.30469 22.2266C16.4453 20.1172 24.8047 26.4453 25.7031 35.3906C25.5469 33.9844 23.8281 33.2031 23.0078 33.3984C22.6172 34.3359 21.9531 35.5859 20.8984 36.3281C20.9766 35.4688 20.9375 34.6094 20.7812 33.75C20.5078 34.9219 19.9609 36.0547 19.1797 36.9922C17.9687 37.0703 16.7187 36.4844 16.0937 35.5859C16.0547 35.5469 16.0156 35.4687 15.9766 35.4297C15.9375 35.3516 15.8984 35.2344 15.8594 35.1562C15.8203 35.0781 15.7812 34.9609 15.7812 34.8828V34.6094V34.4141C15.7812 34.3359 15.8203 34.2188 15.8594 34.1406C15.8984 34.0625 15.8984 33.9453 15.9375 33.8672C15.9766 33.7891 16.0156 33.6719 16.0937 33.5938C16.3281 32.9688 16.3281 32.4609 15.8984 32.1875L15.6641 32.0703C15.625 32.0703 15.5469 32.0312 15.5078 32.0312C15.4687 32.0312 15.4297 31.9922 15.3906 31.9922C15.3125 31.9531 15.1953 31.9531 15.1172 31.9141C15.0391 31.875 14.9219 31.875 14.8437 31.875C14.7656 31.875 14.6484 31.8359 14.5703 31.8359H14.375C14.2578 31.8359 14.1797 31.8359 14.1016 31.875C14.0234 31.875 13.9062 31.9141 13.8281 31.9141C13.75 31.9531 13.6328 31.9531 13.5547 31.9922C13.4766 32.0312 13.3984 32.0703 13.2812 32.1094L13.0469 32.2266C10.0391 34.1797 11.8359 38.7891 13.8672 40.1172C13.0859 40.2734 12.3047 40.4297 12.0703 40.5859L12.0312 40.625C12.5781 40.9766 13.1641 41.25 13.7891 41.4844C14.6094 41.7578 15.5078 41.9922 15.8984 42.1094C16.9531 42.3438 18.0469 42.4219 19.1406 42.3438C24.8437 41.9531 29.5312 37.5781 30.3906 31.875C30.4297 31.9922 30.4297 32.1094 30.4687 32.2266C30.5078 32.4609 30.5469 32.6953 30.5859 32.9688C30.625 33.0859 30.625 33.2031 30.625 33.3203V33.3594C30.625 33.4766 30.6641 33.5938 30.6641 33.7109C30.6641 33.8672 30.7031 33.9844 30.7031 34.1406V35.7812C30.7031 35.8984 30.6641 35.9766 30.6641 36.0938V36.2109C30.6641 36.3281 30.625 36.4453 30.625 36.6016C30.5859 36.7187 30.5859 36.8359 30.5469 36.9531V36.9922C30.5078 37.1094 30.5078 37.2266 30.4687 37.3438V37.3828C30.4297 37.5 30.4297 37.6172 30.3906 37.7344V37.7734L30.2734 38.125V38.1641C30.2344 38.2812 30.1953 38.4375 30.1562 38.5547C30.1172 38.6719 30.0781 38.7891 30 38.9453C29.9609 39.0625 29.9219 39.2187 29.8437 39.3359C29.8047 39.4531 29.7266 39.5703 29.6875 39.7266C29.6484 39.8437 29.5703 39.9609 29.5312 40.0781C29.5312 40.1172 29.4922 40.1562 29.4922 40.1562C29.4922 40.1562 29.4922 40.1953 29.4531 40.1953C28.6328 41.875 27.3828 43.3594 25.8203 44.5312C25.7031 44.6094 25.625 44.6875 25.5078 44.7656C25.4687 44.8047 25.4297 44.8047 25.4297 44.8438C25.3516 44.9219 25.2344 44.9609 25.1562 45.0391L25.1953 45.1172C25.3906 45.0781 25.5469 45.0781 25.7422 45.0391C26.0937 45 26.4062 44.9219 26.7578 44.8438C26.8359 44.8438 26.9531 44.8047 27.0312 44.7656C27.1094 44.7656 27.1484 44.7266 27.2266 44.7266C27.3047 44.7266 27.4219 44.6875 27.5 44.6875C27.5781 44.6484 27.6562 44.6484 27.7344 44.6094C29.0234 44.2969 30.2734 43.8672 31.4844 43.3594C29.4141 46.1719 26.6797 48.4375 23.4766 49.9219C24.9609 49.8047 26.4453 49.5703 27.8906 49.1406C33.0859 47.6172 37.4609 44.1016 40.0781 39.375C39.5312 42.3438 38.3594 45.1953 36.6016 47.6953C37.8516 46.875 38.9844 45.8984 40.0391 44.8438C42.9297 41.8359 44.8437 37.9687 45.4687 33.8672C45.8984 35.8984 46.0547 38.0078 45.8594 40.0781C55.1953 27.0703 46.6406 13.5938 43.0469 10.0391C43.0469 10 43.0078 10 43.0078 9.96094C43.0078 10.1172 43.0078 10.2734 42.9687 10.4297C42.9297 10.7422 42.8906 11.0156 42.8516 11.2891C42.7734 11.5625 42.6953 11.875 42.6172 12.1484C42.5391 12.4219 42.4219 12.6953 42.3047 12.9688C42.1875 13.2422 42.0703 13.5156 41.9141 13.75C41.7578 13.9844 41.6016 14.2578 41.4453 14.4922C41.2891 14.7266 41.0937 14.9609 40.8984 15.1953C40.7031 15.4297 40.5078 15.625 40.2734 15.8594C40.1562 15.9766 40.0391 16.0938 39.8828 16.1719C39.7656 16.25 39.6875 16.3281 39.5703 16.4453C39.3359 16.6406 39.1016 16.7969 38.8281 16.9531C38.5937 17.1094 38.3203 17.2656 38.0469 17.3828L37.2266 17.7344C36.9531 17.8516 36.6797 17.9297 36.4062 18.0078C36.1328 18.0859 35.8203 18.1641 35.5469 18.2031C35.2344 18.2422 34.9609 18.2812 34.6875 18.3203C34.4922 18.3203 34.2578 18.3594 34.0625 18.3594C33.75 18.3594 33.4766 18.3203 33.2031 18.3203C32.8906 18.2812 32.6172 18.2422 32.3438 18.2031C32.0312 18.1641 31.7578 18.0859 31.4844 17.9688C31.7578 17.9297 32.0703 17.9297 32.3438 17.8516C32.6562 17.8125 32.9297 17.7344 33.2031 17.6562C33.4766 17.5781 33.7891 17.5 34.0234 17.3828L34.8437 17.0312C35.1172 16.9141 35.3516 16.7578 35.625 16.6016C35.8594 16.4453 36.1328 16.25 36.3672 16.0938C36.6016 15.8984 36.8359 15.7031 37.0312 15.5078C37.2656 15.3125 37.4609 15.0781 37.6562 14.8828C37.8516 14.6484 38.0469 14.4141 38.2031 14.1797C38.2422 14.1406 38.2422 14.1016 38.2812 14.0625C38.3984 13.8672 38.5547 13.6328 38.6719 13.4375C38.8281 13.1641 38.9453 12.9297 39.0625 12.6563C39.1797 12.3828 39.2969 12.1094 39.375 11.8359L39.6094 11.0156C39.6484 10.7031 39.7266 10.4297 39.7266 10.1562C39.7656 9.84375 39.7656 9.57031 39.7656 9.29688C39.7656 9.10156 39.7656 8.86719 39.7266 8.67188C39.6875 8.35938 39.6484 8.08594 39.6094 7.8125C39.5703 7.5 39.4922 7.22656 39.4141 6.95312C39.3359 6.67969 39.2187 6.40625 39.1406 6.13281C39.0234 5.85938 38.9062 5.58594 38.7891 5.35156C38.6328 5.07812 38.5156 4.84375 38.3594 4.57031C38.2031 4.33594 38.0078 4.10156 37.8516 3.86719C37.6562 3.63281 37.4609 3.4375 37.2656 3.20312C37.1484 3.08594 37.0312 2.96875 36.9141 2.89062C36.3281 2.42188 35.7422 2.03125 35.1172 1.64062C35.0391 1.60156 34.9609 1.5625 34.8437 1.52344C34.3359 1.09375 33.9453 0.976562 33.5547 0.820312Z" fill="#DF234F"/>
</g>
<defs>
<clipPath id="clip0_6_557">
<rect width="50" height="50" fill="white"/>
</clipPath>
</defs>
</svg>
